<?xml version="1.0" encoding="utf-8"?>
<!-- Generator: Adobe Illustrator 22.1.0, SVG Export Plug-In . SVG Version: 6.00 Build 0)  -->
<svg version="1.1" id="Layer_1" xmlns="http://www.w3.org/2000/svg" xmlns:xlink="http://www.w3.org/1999/xlink" x="0px" y="0px"
	 viewBox="0 0 300 200" style="enable-background:new 0 0 300 200;" xml:space="preserve">
<style type="text/css">
	.st0{fill:url(#SVGID_1_);stroke:url(#SVGID_2_);stroke-width:0.5;stroke-miterlimit:10;}
	.st1{fill:none;stroke:url(#SVGID_3_);stroke-width:0.5;stroke-miterlimit:10;}
	.st2{fill:url(#SVGID_4_);stroke:url(#SVGID_5_);stroke-width:0.5;stroke-miterlimit:10;}
	.st3{fill:none;stroke:url(#SVGID_6_);stroke-width:0.5;stroke-miterlimit:10;}
	.st4{fill:url(#SVGID_7_);stroke:url(#SVGID_8_);stroke-width:0.5;stroke-miterlimit:10;}
	.st5{fill:none;stroke:url(#SVGID_9_);stroke-width:0.5;stroke-miterlimit:10;}
	.st6{fill:url(#SVGID_10_);stroke:url(#SVGID_11_);stroke-width:0.5;stroke-miterlimit:10;}
	.st7{fill:none;stroke:url(#SVGID_12_);stroke-width:0.5;stroke-miterlimit:10;}
	.st8{fill:url(#SVGID_13_);stroke:url(#SVGID_14_);stroke-width:0.5;stroke-miterlimit:10;}
	.st9{fill:none;stroke:url(#SVGID_15_);stroke-width:0.5;stroke-miterlimit:10;}
	.st10{fill:url(#SVGID_16_);stroke:url(#SVGID_17_);stroke-width:0.5;stroke-miterlimit:10;}
	.st11{fill:none;stroke:url(#SVGID_18_);stroke-width:0.5;stroke-miterlimit:10;}
	.st12{fill:url(#SVGID_19_);stroke:url(#SVGID_20_);stroke-width:0.5;stroke-miterlimit:10;}
	.st13{fill:none;stroke:url(#SVGID_21_);stroke-width:0.5;stroke-miterlimit:10;}
	.st14{fill:url(#SVGID_22_);stroke:url(#SVGID_23_);stroke-width:0.5;stroke-miterlimit:10;}
	.st15{fill:none;stroke:url(#SVGID_24_);stroke-width:0.5;stroke-miterlimit:10;}
	.st16{fill:url(#SVGID_25_);stroke:url(#SVGID_26_);stroke-width:0.5;stroke-miterlimit:10;}
	.st17{fill:none;stroke:url(#SVGID_27_);stroke-width:0.5;stroke-miterlimit:10;}
	.st18{fill:url(#SVGID_28_);stroke:url(#SVGID_29_);stroke-width:0.5;stroke-miterlimit:10;}
	.st19{fill:none;stroke:url(#SVGID_30_);stroke-width:0.5;stroke-miterlimit:10;}
	.st20{fill:url(#SVGID_31_);stroke:url(#SVGID_32_);stroke-width:0.5;stroke-miterlimit:10;}
	.st21{fill:none;stroke:url(#SVGID_33_);stroke-width:0.5;stroke-miterlimit:10;}
	.st22{fill:url(#SVGID_34_);stroke:url(#SVGID_35_);stroke-width:0.5;stroke-miterlimit:10;}
	.st23{fill:none;stroke:url(#SVGID_36_);stroke-width:0.5;stroke-miterlimit:10;}
	.st24{fill:url(#SVGID_37_);stroke:url(#SVGID_38_);stroke-width:0.5;stroke-miterlimit:10;}
	.st25{fill:none;stroke:url(#SVGID_39_);stroke-width:0.5;stroke-miterlimit:10;}
	.st26{fill:url(#SVGID_40_);stroke:url(#SVGID_41_);stroke-width:0.5;stroke-miterlimit:10;}
	.st27{fill:none;stroke:url(#SVGID_42_);stroke-width:0.5;stroke-miterlimit:10;}
	.st28{fill:url(#SVGID_43_);stroke:url(#SVGID_44_);stroke-width:0.5;stroke-miterlimit:10;}
	.st29{fill:none;stroke:url(#SVGID_45_);stroke-width:0.5;stroke-miterlimit:10;}
	.st30{fill:url(#SVGID_46_);stroke:url(#SVGID_47_);stroke-width:0.5;stroke-miterlimit:10;}
	.st31{fill:none;stroke:url(#SVGID_48_);stroke-width:0.5;stroke-miterlimit:10;}
	.st32{fill:url(#SVGID_49_);stroke:url(#SVGID_50_);stroke-width:0.5;stroke-miterlimit:10;}
	.st33{fill:none;stroke:url(#SVGID_51_);stroke-width:0.5;stroke-miterlimit:10;}
	.st34{fill:url(#SVGID_52_);stroke:url(#SVGID_53_);stroke-width:0.5;stroke-miterlimit:10;}
	.st35{fill:none;stroke:url(#SVGID_54_);stroke-width:0.5;stroke-miterlimit:10;}
	.st36{fill:url(#SVGID_55_);stroke:url(#SVGID_56_);stroke-width:0.5;stroke-miterlimit:10;}
	.st37{fill:none;stroke:url(#SVGID_57_);stroke-width:0.5;stroke-miterlimit:10;}
	.st38{fill:url(#SVGID_58_);stroke:url(#SVGID_59_);stroke-width:0.5;stroke-miterlimit:10;}
	.st39{fill:none;stroke:url(#SVGID_60_);stroke-width:0.5;stroke-miterlimit:10;}
	.st40{fill:#D5D6D6;}
	.st41{fill:#FFFFFF;}
</style>
<g>
	<g>
		
			<linearGradient id="SVGID_1_" gradientUnits="userSpaceOnUse" x1="28.0996" y1="159.4203" x2="131.4911" y2="159.4203" gradientTransform="matrix(0.9511 0.309 0.309 -0.9511 -22.4441 149.3821)">
			<stop  offset="0" style="stop-color:#4C86C6"/>
			<stop  offset="0.4234" style="stop-color:#FCB315;stop-opacity:0.7"/>
			<stop  offset="0.5909" style="stop-color:#FCB315;stop-opacity:0.7"/>
			<stop  offset="1" style="stop-color:#4C86C6;stop-opacity:0"/>
		</linearGradient>
		<linearGradient id="SVGID_2_" gradientUnits="userSpaceOnUse" x1="55.5733" y1="22.0744" x2="149.8267" y2="22.0744">
			<stop  offset="0" style="stop-color:#FCB315"/>
			<stop  offset="1" style="stop-color:#4C86C6"/>
		</linearGradient>
		<path class="st0" d="M127.9,66.4L89.8,54c-25.9-8.4-40-36.2-31.6-62l2.3-7c1.9-6,8.3-9.2,14.3-7.3l40.7,13.2
			c25.9,8.4,40,36.2,31.6,62l-1.4,4.4C143.2,64.8,135.3,68.8,127.9,66.4z"/>
		<linearGradient id="SVGID_3_" gradientUnits="userSpaceOnUse" x1="55.5733" y1="22.0744" x2="149.8267" y2="22.0744">
			<stop  offset="0" style="stop-color:#FCB315"/>
			<stop  offset="1" style="stop-color:#4C86C6"/>
		</linearGradient>
		<path class="st1" d="M127.9,66.4L89.8,54c-25.9-8.4-40-36.2-31.6-62l2.3-7c1.9-6,8.3-9.2,14.3-7.3l40.7,13.2
			c25.9,8.4,40,36.2,31.6,62l-1.4,4.4C143.2,64.8,135.3,68.8,127.9,66.4z"/>
	</g>
	<g>
		
			<linearGradient id="SVGID_4_" gradientUnits="userSpaceOnUse" x1="28.0017" y1="159.8181" x2="131.3794" y2="159.8181" gradientTransform="matrix(0.809 0.5878 0.5878 -0.809 -28.1548 94.2846)">
			<stop  offset="0" style="stop-color:#4C86C6"/>
			<stop  offset="0.4234" style="stop-color:#FCB315;stop-opacity:0.7"/>
			<stop  offset="0.5909" style="stop-color:#FCB315;stop-opacity:0.7"/>
			<stop  offset="1" style="stop-color:#4C86C6;stop-opacity:0"/>
		</linearGradient>
		<linearGradient id="SVGID_5_" gradientUnits="userSpaceOnUse" x1="87.7883" y1="11.29" x2="172.7117" y2="11.29">
			<stop  offset="0" style="stop-color:#FCB315"/>
			<stop  offset="1" style="stop-color:#4C86C6"/>
		</linearGradient>
		<path class="st2" d="M140.7,61.5l-32.4-23.6c-22-16-26.9-46.8-10.9-68.8l4.3-5.9c3.7-5.1,10.8-6.2,15.8-2.5l34.6,25.1
			c22,16,26.9,46.8,10.9,68.8l-2.7,3.8C155.7,64.7,147,66,140.7,61.5z"/>
		<linearGradient id="SVGID_6_" gradientUnits="userSpaceOnUse" x1="87.7883" y1="11.29" x2="172.7117" y2="11.29">
			<stop  offset="0" style="stop-color:#FCB315"/>
			<stop  offset="1" style="stop-color:#4C86C6"/>
		</linearGradient>
		<path class="st3" d="M140.7,61.5l-32.4-23.6c-22-16-26.9-46.8-10.9-68.8l4.3-5.9c3.7-5.1,10.8-6.2,15.8-2.5l34.6,25.1
			c22,16,26.9,46.8,10.9,68.8l-2.7,3.8C155.7,64.7,147,66,140.7,61.5z"/>
	</g>
	<g>
		
			<linearGradient id="SVGID_7_" gradientUnits="userSpaceOnUse" x1="27.8426" y1="160.1153" x2="131.1508" y2="160.1153" gradientTransform="matrix(0.5878 0.809 0.809 -0.5878 -16.5512 40.1389)">
			<stop  offset="0" style="stop-color:#4C86C6"/>
			<stop  offset="0.4234" style="stop-color:#FCB315;stop-opacity:0.7"/>
			<stop  offset="0.5909" style="stop-color:#FCB315;stop-opacity:0.7"/>
			<stop  offset="1" style="stop-color:#4C86C6;stop-opacity:0"/>
		</linearGradient>
		<linearGradient id="SVGID_8_" gradientUnits="userSpaceOnUse" x1="121.1883" y1="9.7757" x2="198.2117" y2="9.7757">
			<stop  offset="0" style="stop-color:#FCB315"/>
			<stop  offset="1" style="stop-color:#4C86C6"/>
		</linearGradient>
		<path class="st4" d="M154.4,60.8l-23.6-32.4c-16-22-11.1-52.8,10.9-68.8l5.9-4.3c5.1-3.7,12.2-2.6,15.8,2.5l25.1,34.6
			c16,22,11.1,52.8-10.9,68.8l-3.8,2.7C167.7,68.4,159,67,154.4,60.8z"/>
		<linearGradient id="SVGID_9_" gradientUnits="userSpaceOnUse" x1="121.1883" y1="9.7757" x2="198.2117" y2="9.7757">
			<stop  offset="0" style="stop-color:#FCB315"/>
			<stop  offset="1" style="stop-color:#4C86C6"/>
		</linearGradient>
		<path class="st5" d="M154.4,60.8l-23.6-32.4c-16-22-11.1-52.8,10.9-68.8l5.9-4.3c5.1-3.7,12.2-2.6,15.8,2.5l25.1,34.6
			c16,22,11.1,52.8-10.9,68.8l-3.8,2.7C167.7,68.4,159,67,154.4,60.8z"/>
	</g>
	<g>
		
			<linearGradient id="SVGID_10_" gradientUnits="userSpaceOnUse" x1="27.4928" y1="160.592" x2="130.8086" y2="160.592" gradientTransform="matrix(0.309 0.9511 0.9511 -0.309 11.2002 -7.7854)">
			<stop  offset="0" style="stop-color:#4C86C6"/>
			<stop  offset="0.4234" style="stop-color:#FCB315;stop-opacity:0.7"/>
			<stop  offset="0.5909" style="stop-color:#FCB315;stop-opacity:0.7"/>
			<stop  offset="1" style="stop-color:#4C86C6;stop-opacity:0"/>
		</linearGradient>
		<linearGradient id="SVGID_11_" gradientUnits="userSpaceOnUse" x1="152.6825" y1="17.5442" x2="224.0175" y2="17.5442">
			<stop  offset="0" style="stop-color:#FCB315"/>
			<stop  offset="1" style="stop-color:#4C86C6"/>
		</linearGradient>
		<path class="st6" d="M167.7,64.3l-12.4-38.2c-8.4-25.9,5.8-53.6,31.6-62l7-2.3c6-1.9,12.4,1.3,14.3,7.3l13.1,40.7
			c8.4,25.9-5.8,53.6-31.6,62l-4.4,1.4C177.9,75.7,170,71.6,167.7,64.3z"/>
		<linearGradient id="SVGID_12_" gradientUnits="userSpaceOnUse" x1="152.6825" y1="17.5442" x2="224.0175" y2="17.5442">
			<stop  offset="0" style="stop-color:#FCB315"/>
			<stop  offset="1" style="stop-color:#4C86C6"/>
		</linearGradient>
		<path class="st7" d="M167.7,64.3l-12.4-38.2c-8.4-25.9,5.8-53.6,31.6-62l7-2.3c6-1.9,12.4,1.3,14.3,7.3l13.1,40.7
			c8.4,25.9-5.8,53.6-31.6,62l-4.4,1.4C177.9,75.7,170,71.6,167.7,64.3z"/>
	</g>
	<g>
		
			<linearGradient id="SVGID_13_" gradientUnits="userSpaceOnUse" x1="27.1253" y1="160.729" x2="130.4253" y2="160.729" gradientTransform="matrix(-1.665335e-16 1 1 1.665335e-16 52.421 -44.7753)">
			<stop  offset="0" style="stop-color:#4C86C6"/>
			<stop  offset="0.4234" style="stop-color:#FCB315;stop-opacity:0.7"/>
			<stop  offset="0.5909" style="stop-color:#FCB315;stop-opacity:0.7"/>
			<stop  offset="1" style="stop-color:#4C86C6;stop-opacity:0"/>
		</linearGradient>
		<linearGradient id="SVGID_14_" gradientUnits="userSpaceOnUse" x1="179" y1="34" x2="247.3" y2="34">
			<stop  offset="0" style="stop-color:#FCB315"/>
			<stop  offset="1" style="stop-color:#4C86C6"/>
		</linearGradient>
		<path class="st8" d="M179.2,71.7V31.6c0-27.2,22-49.2,49.2-49.2h7.3c6.3,0,11.3,5.1,11.3,11.3v42.8c0,27.2-22,49.2-49.2,49.2h-4.7
			C185.4,85.7,179.2,79.5,179.2,71.7z"/>
		<linearGradient id="SVGID_15_" gradientUnits="userSpaceOnUse" x1="179" y1="34" x2="247.3" y2="34">
			<stop  offset="0" style="stop-color:#FCB315"/>
			<stop  offset="1" style="stop-color:#4C86C6"/>
		</linearGradient>
		<path class="st9" d="M179.2,71.7V31.6c0-27.2,22-49.2,49.2-49.2h7.3c6.3,0,11.3,5.1,11.3,11.3v42.8c0,27.2-22,49.2-49.2,49.2h-4.7
			C185.4,85.7,179.2,79.5,179.2,71.7z"/>
	</g>
	<g>
		
			<linearGradient id="SVGID_16_" gradientUnits="userSpaceOnUse" x1="26.7656" y1="160.8464" x2="130.1052" y2="160.8464" gradientTransform="matrix(-0.309 0.9511 0.9511 0.309 103.0389 -67.2194)">
			<stop  offset="0" style="stop-color:#4C86C6"/>
			<stop  offset="0.4234" style="stop-color:#FCB315;stop-opacity:0.7"/>
			<stop  offset="0.5909" style="stop-color:#FCB315;stop-opacity:0.7"/>
			<stop  offset="1" style="stop-color:#4C86C6;stop-opacity:0"/>
		</linearGradient>
		<linearGradient id="SVGID_17_" gradientUnits="userSpaceOnUse" x1="186.9045" y1="57" x2="277.3467" y2="57">
			<stop  offset="0" style="stop-color:#FCB315"/>
			<stop  offset="1" style="stop-color:#4C86C6"/>
		</linearGradient>
		<path class="st10" d="M187.8,82.4l12.4-38.1c8.4-25.9,36.2-40,62-31.6l7,2.3c6,1.9,9.2,8.3,7.3,14.3l-13.2,40.5
			c-8.4,25.9-36.2,40-62,31.6l-4.4-1.4C189.4,97.6,185.4,89.7,187.8,82.4z"/>
		<linearGradient id="SVGID_18_" gradientUnits="userSpaceOnUse" x1="186.9045" y1="57" x2="277.3467" y2="57">
			<stop  offset="0" style="stop-color:#FCB315"/>
			<stop  offset="1" style="stop-color:#4C86C6"/>
		</linearGradient>
		<path class="st11" d="M187.8,82.4l12.4-38.1c8.4-25.9,36.2-40,62-31.6l7,2.3c6,1.9,9.2,8.3,7.3,14.3l-13.2,40.5
			c-8.4,25.9-36.2,40-62,31.6l-4.4-1.4C189.4,97.6,185.4,89.7,187.8,82.4z"/>
	</g>
	<g>
		
			<linearGradient id="SVGID_19_" gradientUnits="userSpaceOnUse" x1="26.2078" y1="160.7378" x2="129.5855" y2="160.7378" gradientTransform="matrix(-0.5878 0.809 0.809 0.5878 158.1363 -72.9301)">
			<stop  offset="0" style="stop-color:#4C86C6"/>
			<stop  offset="0.4234" style="stop-color:#FCB315;stop-opacity:0.7"/>
			<stop  offset="0.5909" style="stop-color:#FCB315;stop-opacity:0.7"/>
			<stop  offset="1" style="stop-color:#4C86C6;stop-opacity:0"/>
		</linearGradient>
		<linearGradient id="SVGID_20_" gradientUnits="userSpaceOnUse" x1="189.8613" y1="84.55" x2="295.9872" y2="84.55">
			<stop  offset="0" style="stop-color:#FCB315"/>
			<stop  offset="1" style="stop-color:#4C86C6"/>
		</linearGradient>
		<path class="st12" d="M192.7,95.2l23.6-32.5c16-22,46.8-26.9,68.8-10.9l5.9,4.3c5.1,3.7,6.2,10.8,2.5,15.8l-25.1,34.6
			c-16,22-46.8,26.9-68.8,10.9l-3.8-2.7C189.6,110.2,188.2,101.4,192.7,95.2z"/>
		<linearGradient id="SVGID_21_" gradientUnits="userSpaceOnUse" x1="189.8613" y1="84.55" x2="295.9872" y2="84.55">
			<stop  offset="0" style="stop-color:#FCB315"/>
			<stop  offset="1" style="stop-color:#4C86C6"/>
		</linearGradient>
		<path class="st13" d="M192.7,95.2l23.6-32.5c16-22,46.8-26.9,68.8-10.9l5.9,4.3c5.1,3.7,6.2,10.8,2.5,15.8l-25.1,34.6
			c-16,22-46.8,26.9-68.8,10.9l-3.8-2.7C189.6,110.2,188.2,101.4,192.7,95.2z"/>
	</g>
	<g>
		
			<linearGradient id="SVGID_22_" gradientUnits="userSpaceOnUse" x1="25.779" y1="160.4717" x2="129.0871" y2="160.4717" gradientTransform="matrix(-0.809 0.5878 0.5878 0.809 212.2821 -61.3265)">
			<stop  offset="0" style="stop-color:#4C86C6"/>
			<stop  offset="0.4234" style="stop-color:#FCB315;stop-opacity:0.7"/>
			<stop  offset="0.5909" style="stop-color:#FCB315;stop-opacity:0.7"/>
			<stop  offset="1" style="stop-color:#4C86C6;stop-opacity:0"/>
		</linearGradient>
		<linearGradient id="SVGID_23_" gradientUnits="userSpaceOnUse" x1="187.4895" y1="114" x2="301.4872" y2="114">
			<stop  offset="0" style="stop-color:#FCB315"/>
			<stop  offset="1" style="stop-color:#4C86C6"/>
		</linearGradient>
		<path class="st14" d="M193.5,108.8l32.4-23.6c22-16,52.8-11.1,68.8,10.9l4.3,5.9c3.7,5.1,2.6,12.2-2.5,15.8l-34.6,25.1
			c-22,16-52.8,11.1-68.8-10.9l-2.7-3.8C185.8,122.1,187.2,113.4,193.5,108.8z"/>
		<linearGradient id="SVGID_24_" gradientUnits="userSpaceOnUse" x1="187.4895" y1="114" x2="301.4872" y2="114">
			<stop  offset="0" style="stop-color:#FCB315"/>
			<stop  offset="1" style="stop-color:#4C86C6"/>
		</linearGradient>
		<path class="st15" d="M193.5,108.8l32.4-23.6c22-16,52.8-11.1,68.8,10.9l4.3,5.9c3.7,5.1,2.6,12.2-2.5,15.8l-34.6,25.1
			c-22,16-52.8,11.1-68.8-10.9l-2.7-3.8C185.8,122.1,187.2,113.4,193.5,108.8z"/>
	</g>
	<g>
		
			<linearGradient id="SVGID_25_" gradientUnits="userSpaceOnUse" x1="25.6104" y1="160.2368" x2="128.957" y2="160.2368" gradientTransform="matrix(-0.9511 0.309 0.309 0.9511 260.2064 -33.5751)">
			<stop  offset="0" style="stop-color:#4C86C6"/>
			<stop  offset="0.4234" style="stop-color:#FCB315;stop-opacity:0.7"/>
			<stop  offset="0.5909" style="stop-color:#FCB315;stop-opacity:0.7"/>
			<stop  offset="1" style="stop-color:#4C86C6;stop-opacity:0"/>
		</linearGradient>
		<linearGradient id="SVGID_26_" gradientUnits="userSpaceOnUse" x1="180.0507" y1="142.7" x2="293.1468" y2="142.7">
			<stop  offset="0" style="stop-color:#FCB315"/>
			<stop  offset="1" style="stop-color:#4C86C6"/>
		</linearGradient>
		<path class="st16" d="M189.9,122.1l38.1-12.4c25.9-8.4,53.6,5.8,62,31.6l2.3,7c1.9,6-1.3,12.4-7.3,14.3l-40.7,13.2
			c-25.9,8.4-53.6-5.8-62-31.6l-1.4-4.4C178.6,132.4,182.6,124.5,189.9,122.1z"/>
		<linearGradient id="SVGID_27_" gradientUnits="userSpaceOnUse" x1="180.0507" y1="142.7" x2="293.1468" y2="142.7">
			<stop  offset="0" style="stop-color:#FCB315"/>
			<stop  offset="1" style="stop-color:#4C86C6"/>
		</linearGradient>
		<path class="st17" d="M189.9,122.1l38.1-12.4c25.9-8.4,53.6,5.8,62,31.6l2.3,7c1.9,6-1.3,12.4-7.3,14.3l-40.7,13.2
			c-25.9,8.4-53.6-5.8-62-31.6l-1.4-4.4C178.6,132.4,182.6,124.5,189.9,122.1z"/>
	</g>
	<g>
		
			<linearGradient id="SVGID_28_" gradientUnits="userSpaceOnUse" x1="25.3463" y1="159.8043" x2="128.6463" y2="159.8043" gradientTransform="matrix(-1 0 0 1 297.1963 7.6457)">
			<stop  offset="0" style="stop-color:#4C86C6"/>
			<stop  offset="0.4234" style="stop-color:#FCB315;stop-opacity:0.7"/>
			<stop  offset="0.5909" style="stop-color:#FCB315;stop-opacity:0.7"/>
			<stop  offset="1" style="stop-color:#4C86C6;stop-opacity:0"/>
		</linearGradient>
		<linearGradient id="SVGID_29_" gradientUnits="userSpaceOnUse" x1="168.3" y1="167.45" x2="272.1" y2="167.45">
			<stop  offset="0" style="stop-color:#FCB315"/>
			<stop  offset="1" style="stop-color:#4C86C6"/>
		</linearGradient>
		<path class="st18" d="M182.5,133.6h40.1c27.2,0,49.2,22,49.2,49.2v7.3c0,6.3-5.1,11.3-11.3,11.3h-42.8c-27.2,0-49.2-22-49.2-49.2
			v-4.7C168.5,139.8,174.8,133.6,182.5,133.6z"/>
		<linearGradient id="SVGID_30_" gradientUnits="userSpaceOnUse" x1="168.3" y1="167.45" x2="272.1" y2="167.45">
			<stop  offset="0" style="stop-color:#FCB315"/>
			<stop  offset="1" style="stop-color:#4C86C6"/>
		</linearGradient>
		<path class="st19" d="M182.5,133.6h40.1c27.2,0,49.2,22,49.2,49.2v7.3c0,6.3-5.1,11.3-11.3,11.3h-42.8c-27.2,0-49.2-22-49.2-49.2
			v-4.7C168.5,139.8,174.8,133.6,182.5,133.6z"/>
	</g>
	<g>
		
			<linearGradient id="SVGID_31_" gradientUnits="userSpaceOnUse" x1="25.2642" y1="159.3974" x2="128.6557" y2="159.3974" gradientTransform="matrix(-0.9511 -0.309 -0.309 0.9511 319.6403 58.2636)">
			<stop  offset="0" style="stop-color:#4C86C6"/>
			<stop  offset="0.4234" style="stop-color:#FCB315;stop-opacity:0.7"/>
			<stop  offset="0.5909" style="stop-color:#FCB315;stop-opacity:0.7"/>
			<stop  offset="1" style="stop-color:#4C86C6;stop-opacity:0"/>
		</linearGradient>
		<linearGradient id="SVGID_32_" gradientUnits="userSpaceOnUse" x1="150.0733" y1="186.4303" x2="244.3267" y2="186.4303">
			<stop  offset="0" style="stop-color:#FCB315"/>
			<stop  offset="1" style="stop-color:#4C86C6"/>
		</linearGradient>
		<path class="st20" d="M171.9,142.2l38.1,12.4c25.9,8.4,40,36.2,31.6,62l-2.3,7c-1.9,6-8.3,9.2-14.3,7.3l-40.7-13.2
			c-25.9-8.4-40-36.2-31.6-62l1.4-4.4C156.6,143.9,164.5,139.8,171.9,142.2z"/>
		<linearGradient id="SVGID_33_" gradientUnits="userSpaceOnUse" x1="150.0733" y1="186.4303" x2="244.3267" y2="186.4303">
			<stop  offset="0" style="stop-color:#FCB315"/>
			<stop  offset="1" style="stop-color:#4C86C6"/>
		</linearGradient>
		<path class="st21" d="M171.9,142.2l38.1,12.4c25.9,8.4,40,36.2,31.6,62l-2.3,7c-1.9,6-8.3,9.2-14.3,7.3l-40.7-13.2
			c-25.9-8.4-40-36.2-31.6-62l1.4-4.4C156.6,143.9,164.5,139.8,171.9,142.2z"/>
	</g>
	<g>
		
			<linearGradient id="SVGID_34_" gradientUnits="userSpaceOnUse" x1="25.312" y1="158.9201" x2="128.6898" y2="158.9201" gradientTransform="matrix(-0.809 -0.5878 -0.5878 0.809 325.351 113.361)">
			<stop  offset="0" style="stop-color:#4C86C6"/>
			<stop  offset="0.4234" style="stop-color:#FCB315;stop-opacity:0.7"/>
			<stop  offset="0.5909" style="stop-color:#FCB315;stop-opacity:0.7"/>
			<stop  offset="1" style="stop-color:#4C86C6;stop-opacity:0"/>
		</linearGradient>
		<linearGradient id="SVGID_35_" gradientUnits="userSpaceOnUse" x1="127.1883" y1="197.2243" x2="212.1117" y2="197.2243">
			<stop  offset="0" style="stop-color:#FCB315"/>
			<stop  offset="1" style="stop-color:#4C86C6"/>
		</linearGradient>
		<path class="st22" d="M159.1,147.1l32.4,23.6c22,16,26.9,46.8,10.9,68.8l-4.3,5.9c-3.7,5.1-10.8,6.2-15.8,2.5l-34.6-25.1
			c-22-16-26.9-46.8-10.9-68.8l2.7-3.8C144.1,144,152.8,142.6,159.1,147.1z"/>
		<linearGradient id="SVGID_36_" gradientUnits="userSpaceOnUse" x1="127.1883" y1="197.2243" x2="212.1117" y2="197.2243">
			<stop  offset="0" style="stop-color:#FCB315"/>
			<stop  offset="1" style="stop-color:#4C86C6"/>
		</linearGradient>
		<path class="st23" d="M159.1,147.1l32.4,23.6c22,16,26.9,46.8,10.9,68.8l-4.3,5.9c-3.7,5.1-10.8,6.2-15.8,2.5l-34.6-25.1
			c-22-16-26.9-46.8-10.9-68.8l2.7-3.8C144.1,144,152.8,142.6,159.1,147.1z"/>
	</g>
	<g>
		
			<linearGradient id="SVGID_37_" gradientUnits="userSpaceOnUse" x1="25.4813" y1="158.4889" x2="128.7895" y2="158.4889" gradientTransform="matrix(-0.5878 -0.809 -0.809 0.5878 313.7475 167.5068)">
			<stop  offset="0" style="stop-color:#4C86C6"/>
			<stop  offset="0.4234" style="stop-color:#FCB315;stop-opacity:0.7"/>
			<stop  offset="0.5909" style="stop-color:#FCB315;stop-opacity:0.7"/>
			<stop  offset="1" style="stop-color:#4C86C6;stop-opacity:0"/>
		</linearGradient>
		<linearGradient id="SVGID_38_" gradientUnits="userSpaceOnUse" x1="101.6883" y1="198.7884" x2="178.7117" y2="198.7884">
			<stop  offset="0" style="stop-color:#FCB315"/>
			<stop  offset="1" style="stop-color:#4C86C6"/>
		</linearGradient>
		<path class="st24" d="M145.4,147.9l23.6,32.4c16,22,11.1,52.8-10.9,68.8l-5.9,4.3c-5.1,3.7-12.2,2.6-15.8-2.5l-25.1-34.6
			c-16-22-11.1-52.8,10.9-68.8l3.8-2.7C132.1,140.2,140.8,141.6,145.4,147.9z"/>
		<linearGradient id="SVGID_39_" gradientUnits="userSpaceOnUse" x1="101.6883" y1="198.7884" x2="178.7117" y2="198.7884">
			<stop  offset="0" style="stop-color:#FCB315"/>
			<stop  offset="1" style="stop-color:#4C86C6"/>
		</linearGradient>
		<path class="st25" d="M145.4,147.9l23.6,32.4c16,22,11.1,52.8-10.9,68.8l-5.9,4.3c-5.1,3.7-12.2,2.6-15.8-2.5l-25.1-34.6
			c-16-22-11.1-52.8,10.9-68.8l3.8-2.7C132.1,140.2,140.8,141.6,145.4,147.9z"/>
	</g>
	<g>
		
			<linearGradient id="SVGID_40_" gradientUnits="userSpaceOnUse" x1="25.845" y1="158.2901" x2="129.1916" y2="158.2901" gradientTransform="matrix(-0.309 -0.9511 -0.9511 0.309 285.9961 215.4311)">
			<stop  offset="0" style="stop-color:#4C86C6"/>
			<stop  offset="0.4234" style="stop-color:#FCB315;stop-opacity:0.7"/>
			<stop  offset="0.5909" style="stop-color:#FCB315;stop-opacity:0.7"/>
			<stop  offset="1" style="stop-color:#4C86C6;stop-opacity:0"/>
		</linearGradient>
		<linearGradient id="SVGID_41_" gradientUnits="userSpaceOnUse" x1="75.7825" y1="190.9753" x2="147.2175" y2="190.9753">
			<stop  offset="0" style="stop-color:#FCB315"/>
			<stop  offset="1" style="stop-color:#4C86C6"/>
		</linearGradient>
		<path class="st26" d="M132.1,144.4l12.4,38.1c8.4,25.9-5.8,53.6-31.6,62l-7,2.3c-6,1.9-12.4-1.3-14.3-7.3l-13.2-40.7
			c-8.4-25.9,5.8-53.6,31.6-62l4.4-1.4C121.9,133,129.8,137,132.1,144.4z"/>
		<linearGradient id="SVGID_42_" gradientUnits="userSpaceOnUse" x1="75.7825" y1="190.9753" x2="147.2175" y2="190.9753">
			<stop  offset="0" style="stop-color:#FCB315"/>
			<stop  offset="1" style="stop-color:#4C86C6"/>
		</linearGradient>
		<path class="st27" d="M132.1,144.4l12.4,38.1c8.4,25.9-5.8,53.6-31.6,62l-7,2.3c-6,1.9-12.4-1.3-14.3-7.3l-13.2-40.7
			c-8.4-25.9,5.8-53.6,31.6-62l4.4-1.4C121.9,133,129.8,137,132.1,144.4z"/>
	</g>
	<g>
		
			<linearGradient id="SVGID_43_" gradientUnits="userSpaceOnUse" x1="26.271" y1="158.0253" x2="129.571" y2="158.0253" gradientTransform="matrix(1.665335e-16 -1 -1 -1.665335e-16 244.7753 252.421)">
			<stop  offset="0" style="stop-color:#4C86C6"/>
			<stop  offset="0.4234" style="stop-color:#FCB315;stop-opacity:0.7"/>
			<stop  offset="0.5909" style="stop-color:#FCB315;stop-opacity:0.7"/>
			<stop  offset="1" style="stop-color:#4C86C6;stop-opacity:0"/>
		</linearGradient>
		<linearGradient id="SVGID_44_" gradientUnits="userSpaceOnUse" x1="52.6" y1="174.5" x2="120.9" y2="174.5">
			<stop  offset="0" style="stop-color:#FCB315"/>
			<stop  offset="1" style="stop-color:#4C86C6"/>
		</linearGradient>
		<path class="st28" d="M120.6,136.9V177c0,27.2-22,49.2-49.2,49.2h-7.3c-6.3,0-11.3-5.1-11.3-11.3v-42.8c0-27.2,22-49.2,49.2-49.2
			h4.7C114.4,122.9,120.6,129.2,120.6,136.9z"/>
		<linearGradient id="SVGID_45_" gradientUnits="userSpaceOnUse" x1="52.6" y1="174.5" x2="120.9" y2="174.5">
			<stop  offset="0" style="stop-color:#FCB315"/>
			<stop  offset="1" style="stop-color:#4C86C6"/>
		</linearGradient>
		<path class="st29" d="M120.6,136.9V177c0,27.2-22,49.2-49.2,49.2h-7.3c-6.3,0-11.3-5.1-11.3-11.3v-42.8c0-27.2,22-49.2,49.2-49.2
			h4.7C114.4,122.9,120.6,129.2,120.6,136.9z"/>
	</g>
	<g>
		
			<linearGradient id="SVGID_46_" gradientUnits="userSpaceOnUse" x1="26.6933" y1="157.9912" x2="130.0848" y2="157.9912" gradientTransform="matrix(0.309 -0.9511 -0.9511 -0.309 194.1574 274.865)">
			<stop  offset="0" style="stop-color:#4C86C6"/>
			<stop  offset="0.4234" style="stop-color:#FCB315;stop-opacity:0.7"/>
			<stop  offset="0.5909" style="stop-color:#FCB315;stop-opacity:0.7"/>
			<stop  offset="1" style="stop-color:#4C86C6;stop-opacity:0"/>
		</linearGradient>
		<linearGradient id="SVGID_47_" gradientUnits="userSpaceOnUse" x1="22.5532" y1="151.5" x2="112.9954" y2="151.5">
			<stop  offset="0" style="stop-color:#FCB315"/>
			<stop  offset="1" style="stop-color:#4C86C6"/>
		</linearGradient>
		<path class="st30" d="M112,126.3l-12.4,38.1c-8.4,25.9-36.2,40-62,31.6l-7-2.3c-6-1.9-9.2-8.3-7.3-14.3l13.2-40.7
			c8.4-25.9,36.2-40,62-31.6l4.4,1.4C110.4,111,114.4,118.9,112,126.3z"/>
		<linearGradient id="SVGID_48_" gradientUnits="userSpaceOnUse" x1="22.5532" y1="151.5" x2="112.9954" y2="151.5">
			<stop  offset="0" style="stop-color:#FCB315"/>
			<stop  offset="1" style="stop-color:#4C86C6"/>
		</linearGradient>
		<path class="st31" d="M112,126.3l-12.4,38.1c-8.4,25.9-36.2,40-62,31.6l-7-2.3c-6-1.9-9.2-8.3-7.3-14.3l13.2-40.7
			c8.4-25.9,36.2-40,62-31.6l4.4,1.4C110.4,111,114.4,118.9,112,126.3z"/>
	</g>
	<g>
		
			<linearGradient id="SVGID_49_" gradientUnits="userSpaceOnUse" x1="27.1059" y1="158.0243" x2="130.4836" y2="158.0243" gradientTransform="matrix(0.5878 -0.809 -0.809 -0.5878 139.0599 280.5757)">
			<stop  offset="0" style="stop-color:#4C86C6"/>
			<stop  offset="0.4234" style="stop-color:#FCB315;stop-opacity:0.7"/>
			<stop  offset="0.5909" style="stop-color:#FCB315;stop-opacity:0.7"/>
			<stop  offset="1" style="stop-color:#4C86C6;stop-opacity:0"/>
		</linearGradient>
		<linearGradient id="SVGID_50_" gradientUnits="userSpaceOnUse" x1="3.9128" y1="123.95" x2="110.0387" y2="123.95">
			<stop  offset="0" style="stop-color:#FCB315"/>
			<stop  offset="1" style="stop-color:#4C86C6"/>
		</linearGradient>
		<path class="st32" d="M107.1,113.5l-23.6,32.4c-16,22-46.8,26.9-68.8,10.9l-5.9-4.3c-5.1-3.7-6.2-10.8-2.5-15.8l25.1-34.6
			c16-22,46.8-26.9,68.8-10.9l3.8,2.7C110.2,98.5,111.6,107.2,107.1,113.5z"/>
		<linearGradient id="SVGID_51_" gradientUnits="userSpaceOnUse" x1="3.9128" y1="123.95" x2="110.0387" y2="123.95">
			<stop  offset="0" style="stop-color:#FCB315"/>
			<stop  offset="1" style="stop-color:#4C86C6"/>
		</linearGradient>
		<path class="st33" d="M107.1,113.5l-23.6,32.4c-16,22-46.8,26.9-68.8,10.9l-5.9-4.3c-5.1-3.7-6.2-10.8-2.5-15.8l25.1-34.6
			c16-22,46.8-26.9,68.8-10.9l3.8,2.7C110.2,98.5,111.6,107.2,107.1,113.5z"/>
	</g>
	<g>
		
			<linearGradient id="SVGID_52_" gradientUnits="userSpaceOnUse" x1="27.4641" y1="158.2312" x2="130.831" y2="158.2312" gradientTransform="matrix(0.809 -0.5878 -0.5878 -0.809 84.9142 268.9722)">
			<stop  offset="0" style="stop-color:#4C86C6"/>
			<stop  offset="0.4234" style="stop-color:#FCB315;stop-opacity:0.7"/>
			<stop  offset="0.5909" style="stop-color:#FCB315;stop-opacity:0.7"/>
			<stop  offset="1" style="stop-color:#4C86C6;stop-opacity:0"/>
		</linearGradient>
		<linearGradient id="SVGID_53_" gradientUnits="userSpaceOnUse" x1="-1.5872" y1="94.45" x2="112.4105" y2="94.45">
			<stop  offset="0" style="stop-color:#FCB315"/>
			<stop  offset="1" style="stop-color:#4C86C6"/>
		</linearGradient>
		<path class="st34" d="M106.3,99.8l-32.4,23.6c-22,16-52.8,11.1-68.8-10.9l-4.3-5.9c-3.7-5.1-2.6-12.2,2.5-15.9l34.6-25.1
			c22-16,52.8-11.1,68.8,10.9l2.7,3.8C114,86.5,112.6,95.3,106.3,99.8z"/>
		<linearGradient id="SVGID_54_" gradientUnits="userSpaceOnUse" x1="-1.5872" y1="94.45" x2="112.4105" y2="94.45">
			<stop  offset="0" style="stop-color:#FCB315"/>
			<stop  offset="1" style="stop-color:#4C86C6"/>
		</linearGradient>
		<path class="st35" d="M106.3,99.8l-32.4,23.6c-22,16-52.8,11.1-68.8-10.9l-4.3-5.9c-3.7-5.1-2.6-12.2,2.5-15.9l34.6-25.1
			c22-16,52.8-11.1,68.8,10.9l2.7,3.8C114,86.5,112.6,95.3,106.3,99.8z"/>
	</g>
	<g>
		
			<linearGradient id="SVGID_55_" gradientUnits="userSpaceOnUse" x1="27.7917" y1="158.5196" x2="131.1383" y2="158.5196" gradientTransform="matrix(0.9511 -0.309 -0.309 -0.9511 36.9899 241.2208)">
			<stop  offset="0" style="stop-color:#4C86C6"/>
			<stop  offset="0.4234" style="stop-color:#FCB315;stop-opacity:0.7"/>
			<stop  offset="0.5909" style="stop-color:#FCB315;stop-opacity:0.7"/>
			<stop  offset="1" style="stop-color:#4C86C6;stop-opacity:0"/>
		</linearGradient>
		<linearGradient id="SVGID_56_" gradientUnits="userSpaceOnUse" x1="6.6532" y1="65.9" x2="119.797" y2="65.9">
			<stop  offset="0" style="stop-color:#FCB315"/>
			<stop  offset="1" style="stop-color:#4C86C6"/>
		</linearGradient>
		<path class="st36" d="M109.9,86.6L71.7,99c-25.9,8.4-53.6-5.8-62-31.6l-2.3-7c-1.9-6,1.3-12.4,7.3-14.3l40.7-13.2
			c25.9-8.4,53.6,5.8,62,31.6l1.4,4.4C121.2,76.3,117.2,84.2,109.9,86.6z"/>
		<linearGradient id="SVGID_57_" gradientUnits="userSpaceOnUse" x1="6.6532" y1="65.9" x2="119.797" y2="65.9">
			<stop  offset="0" style="stop-color:#FCB315"/>
			<stop  offset="1" style="stop-color:#4C86C6"/>
		</linearGradient>
		<path class="st37" d="M109.9,86.6L71.7,99c-25.9,8.4-53.6-5.8-62-31.6l-2.3-7c-1.9-6,1.3-12.4,7.3-14.3l40.7-13.2
			c25.9-8.4,53.6,5.8,62,31.6l1.4,4.4C121.2,76.3,117.2,84.2,109.9,86.6z"/>
	</g>
	<g>
		
			<linearGradient id="SVGID_58_" gradientUnits="userSpaceOnUse" x1="28.05" y1="158.9" x2="131.35" y2="158.9" gradientTransform="matrix(1 0 0 -1 0 200)">
			<stop  offset="0" style="stop-color:#4C86C6"/>
			<stop  offset="0.4234" style="stop-color:#FCB315;stop-opacity:0.7"/>
			<stop  offset="0.5909" style="stop-color:#FCB315;stop-opacity:0.7"/>
			<stop  offset="1" style="stop-color:#4C86C6;stop-opacity:0"/>
		</linearGradient>
		<linearGradient id="SVGID_59_" gradientUnits="userSpaceOnUse" x1="27.8" y1="41.1" x2="131.6" y2="41.1">
			<stop  offset="0" style="stop-color:#FCB315"/>
			<stop  offset="1" style="stop-color:#4C86C6"/>
		</linearGradient>
		<path class="st38" d="M117.3,75.1H77.2C50,75.1,28,53.1,28,25.9v-7.4c0-6.3,5.1-11.3,11.3-11.3h42.8c27.2,0,49.2,22,49.2,49.2v4.7
			C131.3,68.8,125,75.1,117.3,75.1z"/>
		<linearGradient id="SVGID_60_" gradientUnits="userSpaceOnUse" x1="27.8" y1="41.1" x2="131.6" y2="41.1">
			<stop  offset="0" style="stop-color:#FCB315"/>
			<stop  offset="1" style="stop-color:#4C86C6"/>
		</linearGradient>
		<path class="st39" d="M117.3,75.1H77.2C50,75.1,28,53.1,28,25.9v-7.4c0-6.3,5.1-11.3,11.3-11.3h42.8c27.2,0,49.2,22,49.2,49.2v4.7
			C131.3,68.8,125,75.1,117.3,75.1z"/>
	</g>
</g>
<g>
	<g>
		<path class="st40" d="M139.5,79c0.1,0,0.1,0.1,0.2,0.1c0.2,0,0.3,0,0.5,0c0.8,0,1.6,0,2.3,0s1.4,0,2.1,0.1c0.8,0,1.5,0.1,2.3,0.1
			c1,0.1,2,0.2,3,0.3c1.8,0.2,3.6,0.7,5.3,1.3c1.1,0.4,2.2,0.8,3.2,1.3c1.1,0.5,2.1,1.2,3,1.9c0.6,0.5,1.2,1,1.7,1.6
			c1.1,1.2,1.9,2.7,2.2,4.3c0.1,0.7,0.2,1.4,0.2,2.1c0,1.1-0.1,2.2-0.5,3.3c-0.3,1-0.9,1.9-1.5,2.7c-0.4,0.5-0.8,0.9-1.2,1.3
			c-0.6,0.5-1.2,1-1.8,1.5c-1,0.7-2,1.3-3.1,1.8c-1,0.5-2.1,0.9-3.1,1.3c-1.6,0.6-3.2,1-4.9,1.4h-0.1c-0.1,0-0.1,0.1-0.1,0.1
			c0,0.1,0.1,0.1,0.1,0.2c0.3,0.1,0.6,0.3,0.9,0.4c1,0.5,1.9,1.1,2.8,1.9c1,0.8,1.9,1.6,2.8,2.5c1,1,1.9,2,2.9,3
			c0.6,0.6,1.2,1.2,1.8,1.9c0.8,0.8,1.5,1.6,2.3,2.3c1,1,1.9,1.9,2.9,2.9c0.5,0.5,1,1,1.5,1.5c0.4,0.4,0.8,0.8,1.2,1.3
			c0.9,0.9,1.8,1.8,2.7,2.7c0.3,0.4,0.7,0.7,1,1.1c0.5,0.5,1.1,1.1,1.6,1.6c0.3,0.3,0.5,0.6,0.8,0.9c-0.1,0-0.2,0-0.2,0
			c-1.6,0-3.3,0-4.9,0c-0.1,0-0.1,0-0.2,0c-1,0-2.1,0-3.1,0c-0.1,0-0.2-0.1-0.2-0.1c-1.8,0-3.7,0-5.5,0c-0.4,0-0.8,0-1.1,0
			c-0.1,0-0.2,0-0.3-0.2c-0.6-1.1-1.3-2.2-1.9-3.3c-0.6-1-1.2-2-1.8-3c-0.8-1.4-1.7-2.9-2.5-4.3c-0.9-1.6-1.8-3.2-2.8-4.8
			c-0.9-1.5-1.7-3-2.6-4.4c-0.9-1.6-1.8-3.1-2.7-4.7c-0.4-0.7-0.8-1.4-1.2-2.1c0,0,0-0.1-0.1-0.1c0.1,0,0.3,0,0.4,0
			c1.1,0.1,2.2-0.2,3.2-0.7c1.1-0.5,2.1-1.1,3.1-1.9c1.1-0.9,2.1-1.9,2.8-3.1c0.6-1,1-2.1,1.2-3.2c0.2-0.9,0.2-1.7,0.1-2.6
			c-0.1-1.7-0.8-3.3-1.8-4.7c-1-1.3-2.2-2.3-3.6-3.2c-1.3-0.8-2.7-1.4-4.2-1.9c-1.3-0.4-2.7-0.8-4-1c-0.8-0.1-1.5-0.2-2.3-0.3
			c-0.6-0.1-1.3-0.1-2-0.1c-3.3,0-6.6,0-9.8,0c-0.4,0-0.5-0.1-0.6-0.4c0-0.1-0.1-0.1-0.1-0.2v-0.1c0.1-0.2,0.2-0.4,0.4-0.4
			c3.6,0,7.2,0,10.8,0c0.1,0,0.1,0,0.2,0c0.7,0,1.4,0,2.2,0C139.5,78.9,139.5,78.9,139.5,79C139.3,79,139.4,79,139.5,79z"/>
		<path class="st41" d="M139.1,79c-0.1,0-0.1,0-0.2,0c-0.7,0-1.4,0-2.2,0c-0.1,0-0.1,0-0.2,0C137.5,79,138.3,79,139.1,79z"/>
		<path class="st41" d="M125.8,79c-0.2,0.1-0.3,0.3-0.4,0.4c0-0.1,0-0.3,0-0.4C125.6,79,125.7,79,125.8,79z"/>
		<path class="st40" d="M147.5,129.6c-0.1,0-0.2,0-0.2,0c-4.7,0-9.4,0-14.1,0c-0.3,0-0.3,0-0.3-0.3c0-3.7,0-7.3,0-11
			c0-0.2,0.1-0.2,0.3-0.2c3.5,0,7,0,10.5,0c0.2,0,0.3,0.1,0.3,0.2c0.3,0.9,0.6,1.8,0.9,2.7c0.6,2,1.2,3.9,1.9,5.9
			c0.3,0.8,0.5,1.6,0.8,2.4C147.4,129.5,147.5,129.5,147.5,129.6z"/>
		<path class="st40" d="M132.9,83.4c0.1,0.5,0.3,0.9,0.4,1.4c0.6,2,1.3,4,1.9,6c0.4,1.2,0.7,2.4,1.1,3.6c0.5,1.7,1.1,3.5,1.6,5.2
			c0.4,1.2,0.8,2.4,1.1,3.6c0.5,1.7,1.1,3.3,1.6,5c0.3,1.1,0.7,2.1,1,3.2c0,0.1,0,0.1,0.1,0.2c-0.1,0-0.2,0-0.2,0
			c-2.8,0-5.6,0-8.4,0c-0.2,0-0.2,0-0.2-0.2c0-9.3,0-18.5,0-27.8C132.9,83.5,132.9,83.4,132.9,83.4L132.9,83.4z"/>
	</g>
</g>
</svg>
